<svg width="18" height="22" viewBox="0 0 18 22" fill="none" xmlns="http://www.w3.org/2000/svg">
<path d="M0 19.5312C0 20.6182 0.863839 21.5 1.92857 21.5H16.0714C17.1362 21.5 18 20.6182 18 19.5312V8.375H0V19.5312ZM12.8571 11.4922C12.8571 11.2215 13.0741 11 13.3393 11H14.9464C15.2116 11 15.4286 11.2215 15.4286 11.4922V13.1328C15.4286 13.4035 15.2116 13.625 14.9464 13.625H13.3393C13.0741 13.625 12.8571 13.4035 12.8571 13.1328V11.4922ZM12.8571 16.7422C12.8571 16.4715 13.0741 16.25 13.3393 16.25H14.9464C15.2116 16.25 15.4286 16.4715 15.4286 16.7422V18.3828C15.4286 18.6535 15.2116 18.875 14.9464 18.875H13.3393C13.0741 18.875 12.8571 18.6535 12.8571 18.3828V16.7422ZM7.71429 11.4922C7.71429 11.2215 7.93125 11 8.19643 11H9.80357C10.0687 11 10.2857 11.2215 10.2857 11.4922V13.1328C10.2857 13.4035 10.0687 13.625 9.80357 13.625H8.19643C7.93125 13.625 7.71429 13.4035 7.71429 13.1328V11.4922ZM7.71429 16.7422C7.71429 16.4715 7.93125 16.25 8.19643 16.25H9.80357C10.0687 16.25 10.2857 16.4715 10.2857 16.7422V18.3828C10.2857 18.6535 10.0687 18.875 9.80357 18.875H8.19643C7.93125 18.875 7.71429 18.6535 7.71429 18.3828V16.7422ZM2.57143 11.4922C2.57143 11.2215 2.78839 11 3.05357 11H4.66071C4.92589 11 5.14286 11.2215 5.14286 11.4922V13.1328C5.14286 13.4035 4.92589 13.625 4.66071 13.625H3.05357C2.78839 13.625 2.57143 13.4035 2.57143 13.1328V11.4922ZM2.57143 16.7422C2.57143 16.4715 2.78839 16.25 3.05357 16.25H4.66071C4.92589 16.25 5.14286 16.4715 5.14286 16.7422V18.3828C5.14286 18.6535 4.92589 18.875 4.66071 18.875H3.05357C2.78839 18.875 2.57143 18.6535 2.57143 18.3828V16.7422ZM16.0714 3.125H14.1429V1.15625C14.1429 0.795312 13.8536 0.5 13.5 0.5H12.2143C11.8607 0.5 11.5714 0.795312 11.5714 1.15625V3.125H6.42857V1.15625C6.42857 0.795312 6.13929 0.5 5.78571 0.5H4.5C4.14643 0.5 3.85714 0.795312 3.85714 1.15625V3.125H1.92857C0.863839 3.125 0 4.00684 0 5.09375V7.0625H18V5.09375C18 4.00684 17.1362 3.125 16.0714 3.125Z" fill="black"/>
</svg>
