<svg width="16" height="22" viewBox="0 0 16 22" fill="none" xmlns="http://www.w3.org/2000/svg">
<path d="M7.17783 21.0763C1.12375 12.4368 0 11.5501 0 8.375C0 4.02574 3.58171 0.5 8 0.5C12.4183 0.5 16 4.02574 16 8.375C16 11.5501 14.8763 12.4368 8.82217 21.0763C8.42488 21.6413 7.57508 21.6412 7.17783 21.0763ZM8 11.6562C9.84096 11.6562 11.3333 10.1872 11.3333 8.375C11.3333 6.56281 9.84096 5.09375 8 5.09375C6.15904 5.09375 4.66667 6.56281 4.66667 8.375C4.66667 10.1872 6.15904 11.6562 8 11.6562Z" fill="black"/>
</svg>
